<?xml version="1.0" encoding="UTF-8"?>
<svg id="_圖層_1" data-name="圖層 1" xmlns="http://www.w3.org/2000/svg" viewBox="0 0 24 24">
  <defs>
    <style>
      .cls-1 {
        fill: none;
        stroke: #4d4d4d;
        stroke-miterlimit: 10;
        stroke-width: 2px;
      }

      .cls-2 {
        fill: #4d4d4d;
        stroke-width: 0px;
      }
    </style>
  </defs>
  <path class="cls-1" d="M1.77,18.27c0-4.18,0-8.37,0-12.55.01-.02.03-.03.03-.05.24-1.07.99-1.67,2.08-1.67,5.43,0,10.86,0,16.28,0,1.21,0,2.07.86,2.07,2.06,0,3.96,0,7.91,0,11.87,0,.18-.02.36-.06.53-.23.93-1.02,1.53-2.01,1.53-5.11,0-10.23,0-15.34,0-.37,0-.73,0-1.1,0-.83-.02-1.56-.55-1.83-1.34-.04-.12-.08-.25-.12-.38Z"/>
  <path class="cls-2" d="M8.09,16.56c-.91,0-1.81,0-2.72,0-.19,0-.39-.02-.57-.07-.59-.2-.93-.84-.75-1.45.21-.71.44-1.42.68-2.13.19-.57.78-.82,1.33-.59,1.35.57,2.7.57,4.05,0,.56-.23,1.15.03,1.34.6.23.69.46,1.38.67,2.07.24.78-.26,1.53-1.08,1.55-.98.03-1.97,0-2.96,0,0,0,0,0,0,0Z"/>
  <path class="cls-2" d="M8.1,7.49c1.23,0,2.22,1,2.21,2.23,0,1.22-1,2.2-2.22,2.19-1.22,0-2.21-1-2.2-2.22,0-1.22,1-2.21,2.22-2.2Z"/>
  <path class="cls-2" d="M17.14,8.78c.72,0,1.44,0,2.16,0,.38,0,.64.23.64.56,0,.33-.25.56-.64.56-1.44,0-2.87,0-4.31,0-.38,0-.64-.23-.64-.56,0-.33.26-.56.64-.56.72,0,1.44,0,2.16,0Z"/>
  <path class="cls-2" d="M17.13,10.78c.72,0,1.44,0,2.16,0,.39,0,.64.22.64.56,0,.33-.25.56-.64.56-1.44,0-2.87,0-4.31,0-.39,0-.64-.22-.64-.56,0-.33.25-.56.64-.56.72,0,1.44,0,2.16,0Z"/>
  <path class="cls-2" d="M17.16,12.78c.71,0,1.42,0,2.14,0,.38,0,.64.23.64.56,0,.33-.26.56-.64.56-1.44,0-2.87,0-4.31,0-.38,0-.64-.23-.64-.56,0-.33.26-.56.64-.56.73,0,1.45,0,2.18,0Z"/>
</svg>