<?xml version="1.0" encoding="UTF-8"?>
<svg id="_圖層_1" data-name="圖層 1" xmlns="http://www.w3.org/2000/svg" viewBox="0 0 24 24">
  <defs>
    <style>
      .cls-1 {
        fill: #fff;
        stroke-width: 0px;
      }
    </style>
  </defs>
  <path class="cls-1" d="M.89,18.82c0-4.53,0-9.07,0-13.6.01-.02.03-.03.03-.05.26-1.16,1.07-1.81,2.25-1.81,5.88,0,11.76,0,17.65,0,1.31,0,2.25.93,2.25,2.23,0,4.29,0,8.57,0,12.86,0,.19-.02.39-.06.58-.25,1.01-1.1,1.65-2.18,1.65-5.54,0-11.09,0-16.63,0-.4,0-.79,0-1.19,0-.9-.02-1.69-.6-1.98-1.45-.05-.13-.08-.27-.12-.41ZM7.76,16.94s0,0,0,0c1.07,0,2.14.03,3.2,0,.88-.03,1.42-.84,1.17-1.68-.23-.75-.47-1.5-.72-2.24-.21-.62-.85-.91-1.45-.65-1.47.62-2.93.62-4.39,0-.59-.25-1.23.03-1.44.64-.26.76-.51,1.53-.74,2.31-.2.66.16,1.35.81,1.57.19.06.41.08.62.08.98,0,1.96,0,2.94,0ZM7.77,7.11c-1.32,0-2.39,1.06-2.4,2.39-.01,1.32,1.06,2.4,2.39,2.4,1.33,0,2.4-1.05,2.41-2.37,0-1.34-1.05-2.41-2.39-2.42ZM17.56,8.51c-.78,0-1.56,0-2.34,0-.42,0-.69.25-.69.61,0,.36.28.6.69.61,1.56,0,3.12,0,4.67,0,.42,0,.69-.25.69-.61,0-.36-.28-.6-.69-.61-.78,0-1.56,0-2.34,0ZM17.56,10.68c-.78,0-1.56,0-2.34,0-.41,0-.69.25-.69.61,0,.36.28.6.7.6,1.56,0,3.12,0,4.67,0,.41,0,.69-.25.69-.61,0-.36-.28-.6-.7-.6-.78,0-1.56,0-2.34,0ZM17.59,12.84c-.79,0-1.57,0-2.36,0-.42,0-.69.24-.69.6,0,.36.28.61.69.61,1.56,0,3.12,0,4.67,0,.42,0,.69-.24.69-.6,0-.36-.28-.61-.69-.61-.77,0-1.54,0-2.31,0Z"/>
</svg>