<?xml version="1.0" encoding="UTF-8"?>
<svg id="_圖層_1" data-name="圖層 1" xmlns="http://www.w3.org/2000/svg" viewBox="0 0 24 24">
  <defs>
    <style>
      .cls-1 {
        fill: #4d4d4d;
        stroke-width: 0px;
      }
    </style>
  </defs>
  <path class="cls-1" d="M12,12.99c-1.95,0-3.89,0-5.84,0-.15,0-.3,0-.44-.04-.48-.13-.77-.58-.71-1.09.05-.46.45-.83.94-.85.07,0,.14,0,.21,0,3.89,0,7.78,0,11.67,0,.15,0,.3,0,.44.04.48.13.77.58.71,1.09-.05.46-.45.84-.94.85-1,.01-2,0-3,0-1.02,0-2.03,0-3.05,0Z"/>
  <path class="cls-1" d="M9,9.03c-1,0-2,0-3,0-.47,0-.87-.33-.97-.77-.1-.45.11-.92.53-1.11.16-.07.35-.11.52-.11,1.95,0,3.89,0,5.84,0,.64,0,1.09.42,1.08,1.01,0,.59-.45.99-1.09.99-.97,0-1.94,0-2.91,0Z"/>
  <path class="cls-1" d="M12.02,21.01c1.98,0,3.97,0,5.95,0,.45,0,.81.25.96.65.14.39.04.86-.3,1.1-.19.13-.44.19-.66.24-.14.03-.3,0-.44,0-3.78,0-7.56,0-11.35,0-.18,0-.36-.01-.53-.07-.46-.15-.71-.6-.64-1.09.06-.45.47-.81.94-.83.08,0,.16,0,.23,0,1.95,0,3.89,0,5.84,0Z"/>
  <path class="cls-1" d="M13.18,3.04h4.73c1.53,0,2.72.95,3.03,2.41.04.2.06.42.06.66,0,2.62.01,5.23,0,7.85,0,1.47-.91,2.64-2.31,2.97-.22.05-.49.08-.84.08-.92,0-1.83,0-2.75,0h-1.56s-1.57,0-1.57,0h-1.82s-1.81,0-1.81,0c-.76,0-1.52,0-2.28,0-1.52,0-2.7-.95-3.01-2.4-.04-.19-.06-.41-.06-.66,0-2.61,0-5.22,0-7.82,0-1.59,1.03-2.79,2.61-3.05.12-.02.28-.03.5-.03,2.36,0,4.72,0,7.08,0M13.18,1.04c-2.36,0-4.72,0-7.08,0-.27,0-.55.01-.82.06C2.73,1.51,1,3.54.99,6.11c0,2.61,0,5.22,0,7.84,0,.36.03.72.1,1.07.5,2.37,2.5,3.98,4.95,3.99.76,0,1.52,0,2.29,0,1.21,0,2.42,0,3.63,0h.01c1.04,0,2.08,0,3.12,0,.92,0,1.84,0,2.77,0,.43,0,.88-.04,1.3-.14,2.3-.55,3.83-2.52,3.84-4.91,0-2.62,0-5.24,0-7.86,0-.36-.03-.72-.11-1.07-.51-2.38-2.51-3.98-4.99-3.99-1.58,0-3.15,0-4.73,0h0Z"/>
</svg>