<?xml version="1.0" encoding="UTF-8"?>
<svg id="_圖層_1" data-name="圖層 1" xmlns="http://www.w3.org/2000/svg" viewBox="0 0 24 24">
  <defs>
    <style>
      .cls-1 {
        fill: #fff;
        stroke-width: 0px;
      }
    </style>
  </defs>
  <path class="cls-1" d="M11.99,19c-1.98,0-3.95,0-5.93,0-2.46,0-4.45-1.61-4.95-3.99-.07-.35-.1-.71-.1-1.07,0-2.61,0-5.22,0-7.84,0-2.57,1.74-4.6,4.28-5.02.27-.04.54-.06.82-.06,3.94,0,7.88,0,11.81,0,2.47,0,4.48,1.6,4.99,3.99.07.35.11.71.11,1.07,0,2.62.01,5.24,0,7.86,0,2.39-1.54,4.36-3.84,4.91-.42.1-.87.13-1.3.14-1.96.01-3.92,0-5.88,0ZM12,13.02c1.02,0,2.03,0,3.05,0,1,0,2,0,3,0,.49,0,.89-.38.94-.85.06-.51-.23-.96-.71-1.09-.14-.04-.29-.04-.44-.04-3.89,0-7.78,0-11.67,0-.07,0-.14,0-.21,0-.49.02-.89.39-.94.85-.06.51.23.96.71,1.09.14.04.29.04.44.04,1.95,0,3.89,0,5.84,0ZM9,9.03c.97,0,1.94,0,2.91,0,.65,0,1.09-.4,1.09-.99,0-.59-.44-1.01-1.08-1.01-1.95,0-3.89,0-5.84,0-.17,0-.36.04-.52.11-.42.19-.63.66-.53,1.11.1.44.5.77.97.77,1,0,2,0,3,0Z"/>
  <path class="cls-1" d="M12.03,21.01c1.98,0,3.97,0,5.95,0,.45,0,.81.25.96.65.14.39.04.86-.3,1.1-.19.13-.44.19-.66.24-.14.03-.3,0-.44,0-3.78,0-7.56,0-11.35,0-.18,0-.36-.01-.53-.07-.46-.15-.71-.6-.64-1.09.06-.45.47-.81.94-.83.08,0,.16,0,.23,0,1.95,0,3.89,0,5.84,0Z"/>
</svg>