<?xml version="1.0" encoding="UTF-8"?>
<svg id="_圖層_1" data-name="圖層 1" xmlns="http://www.w3.org/2000/svg" viewBox="0 0 24 24">
  <defs>
    <style>
      .cls-1 {
        fill: none;
        stroke: #4d4d4d;
        stroke-miterlimit: 10;
        stroke-width: 2px;
      }
    </style>
  </defs>
  <path class="cls-1" d="M1.76,14.31c0-1.85,0-3.69,0-5.54,0-.67.27-1.16.85-1.5,2.85-1.7,5.7-3.41,8.54-5.12.56-.33,1.12-.34,1.68,0,2.87,1.72,5.73,3.44,8.6,5.16.54.32.8.8.8,1.43,0,3.72,0,7.44,0,11.16,0,1.36-.99,2.34-2.35,2.35-1.22,0-2.43,0-3.65,0-.94,0-1.58-.65-1.59-1.6,0-1.33,0-2.65,0-3.98,0-.57-.3-.87-.86-.87-1.2,0-2.4,0-3.6,0-.55,0-.85.3-.85.85,0,1.32,0,2.64,0,3.96,0,1.01-.63,1.64-1.64,1.64-1.18,0-2.35,0-3.53,0-1.44,0-2.41-.97-2.41-2.4,0-1.84,0-3.68,0-5.52Z"/>
</svg>