<?xml version="1.0" encoding="UTF-8"?>
<svg id="_圖層_1" data-name="圖層 1" xmlns="http://www.w3.org/2000/svg" viewBox="0 0 24 24">
  <defs>
    <style>
      .cls-1 {
        fill: #fff;
        stroke-width: 0px;
      }
    </style>
  </defs>
  <path class="cls-1" d="M1,14.48c0-1.99,0-3.97,0-5.96,0-.72.29-1.25.91-1.62,3.06-1.83,6.12-3.67,9.18-5.51.6-.36,1.2-.37,1.8,0,3.08,1.85,6.17,3.7,9.25,5.55.58.35.86.86.86,1.54,0,4,0,8,0,11.99,0,1.46-1.06,2.52-2.52,2.52-1.31,0-2.61,0-3.92,0-1.02,0-1.7-.7-1.71-1.72,0-1.43,0-2.85,0-4.28,0-.61-.32-.93-.92-.93-1.29,0-2.58,0-3.87,0-.59,0-.91.32-.91.91,0,1.42,0,2.84,0,4.25,0,1.09-.68,1.76-1.76,1.76-1.26,0-2.53,0-3.79,0-1.55,0-2.59-1.04-2.59-2.58,0-1.98,0-3.96,0-5.93Z"/>
</svg>