<?xml version="1.0" encoding="UTF-8"?>
<svg id="_圖層_1" data-name="圖層 1" xmlns="http://www.w3.org/2000/svg" viewBox="0 0 24 24">
  <defs>
    <style>
      .cls-1 {
        fill: #fff;
        stroke-width: 0px;
      }
    </style>
  </defs>
  <path class="cls-1" d="M.89,7.43c.05-.11.09-.23.15-.33.22-.38.56-.54.99-.54,1.46,0,2.92,0,4.37,0,.08,0,.16,0,.27,0,0-.23,0-.44,0-.66,0-.87.75-1.56,1.54-1.56.96,0,1.92-.03,2.88.01.9.04,1.5.71,1.53,1.62,0,.19,0,.37,0,.59h.24c1.44,0,2.89,0,4.33,0,.78,0,1.21.42,1.21,1.2,0,.19,0,.37,0,.58h-.3c-3.64,0-7.28,0-10.91,0-1.28,0-2.22.58-2.79,1.73-1.13,2.29-2.26,4.58-3.39,6.86-.03.07-.08.13-.12.19,0-3.23,0-6.47,0-9.7ZM7.75,6.55h3.8c0-.21,0-.4,0-.59,0-.32-.22-.55-.54-.56-.89,0-1.79,0-2.68,0-.34,0-.55.19-.58.52-.02.2,0,.41,0,.63Z"/>
  <path class="cls-1" d="M14.69,9.42c2.51,0,5.02,0,7.54,0,.15,0,.31,0,.45.05.3.09.45.35.38.66-.03.12-.08.25-.14.36-1.34,2.72-2.68,5.43-4.02,8.14-.35.7-.93,1.07-1.71,1.08-5.05,0-10.1,0-15.16,0-.09,0-.17,0-.26-.02-.42-.05-.63-.38-.5-.78.03-.11.09-.21.14-.32,1.32-2.68,2.65-5.36,3.97-8.05.38-.76.98-1.14,1.83-1.13,2.5,0,4.99,0,7.49,0Z"/>
</svg>